<svg width="29" height="33" viewBox="0 0 29 33" fill="none" xmlns="http://www.w3.org/2000/svg">
<rect x="2.5" y="0.5" width="23" height="23" rx="11.5" fill="white" stroke="#2E3A59"/>
<rect x="10.5" y="28.5" width="7" height="4" rx="1.5" fill="#FFD058" stroke="#2E3A59"/>
<path d="M8.5 22.5H19.5V29C19.5 29.8284 18.8284 30.5 18 30.5H10C9.17157 30.5 8.5 29.8284 8.5 29V22.5Z" fill="#A6ABBD" stroke="#2E3A59"/>
<rect x="9" y="24" width="1" height="1" fill="#2E3A59"/>
<rect x="18" y="24" width="1" height="1" fill="#2E3A59"/>
<rect x="9" y="26" width="1" height="1" fill="#2E3A59"/>
<rect x="18" y="26" width="1" height="1" fill="#2E3A59"/>
<rect x="9" y="28" width="1" height="1" fill="#2E3A59"/>
<rect x="18" y="28" width="1" height="1" fill="#2E3A59"/>
<rect x="-0.00982666" y="29.8027" width="39.3129" height="1" transform="rotate(-45 -0.00982666 29.8027)" fill="#2E3A59"/>
</svg>
